<svg xmlns="http://www.w3.org/2000/svg" enable-background="new 0 0 32 32" viewBox="0 0 32 32" id="breadcrumb"><path fill="#a7a7a7" d="M17.6,14.5l-3.9-7c-0.5-1-1.5-1.5-2.6-1.5H4C3.3,6,2.6,6.4,2.3,7s-0.4,1.4,0,2l3.3,6l0.3,0.5
	c0.2,0.3,0.2,0.7,0,1L5.6,17l-3.3,6c-0.3,0.6-0.3,1.4,0,2s1,1,1.7,1h7.1c1.1,0,2.1-0.6,2.6-1.5l3.9-7C18.1,16.5,18.1,15.5,17.6,14.5
	z" class="colorf2695c svgShape"></path><path d="M17.6,14.5l-3.9-7c-0.5-1-1.5-1.5-2.6-1.5H4C3.3,6,2.6,6.4,2.3,7s-0.4,1.4,0,2l3.6,6.5C6,15.7,6,15.8,6,16c0,0,0,0,0,0
	c0,0,0,0,0,0c0,0.2,0,0.3-0.1,0.4L2.3,23c-0.3,0.6-0.3,1.4,0,2s1,1,1.7,1h7.1c1.1,0,2.1-0.6,2.6-1.5l3.9-7
	C18.1,16.5,18.1,15.5,17.6,14.5z M15.9,16.5l-3.9,7c-0.2,0.3-0.5,0.5-0.9,0.5H4l3.6-6.5c0.1-0.1,0.1-0.3,0.2-0.5H10c0.6,0,1-0.4,1-1
	s-0.4-1-1-1H7.8c-0.1-0.2-0.1-0.3-0.2-0.5L4,8h7.1c0.4,0,0.7,0.2,0.9,0.5l3.9,7C16.1,15.8,16.1,16.2,15.9,16.5z" fill="#0a0a0a" class="color000000 svgShape"></path><path fill="#a7a7a7" d="M29.6,14.5l-3.9-7c-0.5-1-1.5-1.5-2.6-1.5H20c-0.7,0-1.4,0.4-1.7,1s-0.4,1.4,0,2l3.6,6.5c0.2,0.3,0.2,0.7,0,1
	L18.2,23c-0.3,0.6-0.3,1.4,0,2s1,1,1.7,1h3.1c1.1,0,2.1-0.6,2.6-1.5l3.9-7C30.1,16.5,30.1,15.5,29.6,14.5z" class="colorf2af5c svgShape"></path><path d="M23.1,26H20c-0.7,0-1.4-0.4-1.7-1s-0.4-1.4,0-2l3.6-6.5c0.2-0.3,0.2-0.7,0-1L18.2,9c-0.3-0.6-0.3-1.4,0-2s1-1,1.7-1h3.1
		c1.1,0,2.1,0.6,2.6,1.5l3.9,7c0.5,0.9,0.5,2,0,2.9l-3.9,7C25.2,25.4,24.2,26,23.1,26z M20,8l3.6,6.5c0.5,0.9,0.5,2,0,2.9L20,24h3.1
		c0.4,0,0.7-0.2,0.9-0.5l3.9-7c0.2-0.3,0.2-0.7,0-1l-3.9-7C23.8,8.2,23.5,8,23.1,8H20z" fill="#0a0a0a" class="color000000 svgShape"></path></svg>