<?xml version="1.0" standalone="no"?>
<!DOCTYPE svg PUBLIC "-//W3C//DTD SVG 20010904//EN"
 "http://www.w3.org/TR/2001/REC-SVG-20010904/DTD/svg10.dtd">
<svg version="1.0" xmlns="http://www.w3.org/2000/svg"
 width="700.000000pt" height="700.000000pt" viewBox="0 0 700.000000 700.000000"
 preserveAspectRatio="xMidYMid meet">
<metadata>
Created by potrace 1.14, written by Peter Selinger 2001-2017
</metadata>
<g transform="translate(0.000000,700.000000) scale(0.100000,-0.100000)"
fill="#000000" stroke="none">
<path d="M1675 6995 c-5 -1 -38 -11 -72 -20 -35 -10 -63 -22 -63 -27 0 -4 -6
-8 -14 -8 -26 0 -122 -98 -153 -157 -62 -115 -60 -77 -61 -1143 0 -536 -1
-991 -1 -1010 l-1 -36 -107 1 c-92 0 -106 2 -109 17 -11 78 -64 150 -132 181
-40 17 -69 19 -315 18 -217 0 -284 -3 -332 -16 -108 -29 -190 -92 -250 -191
-70 -115 -66 -5 -62 -1959 1 -968 6 -1773 10 -1790 5 -16 15 -64 23 -105 79
-384 352 -665 714 -735 65 -12 453 -14 2805 -12 1502 1 2739 5 2750 9 11 3 49
14 85 23 67 17 206 80 249 112 139 104 258 270 306 423 53 173 49 -84 52 3105
3 3073 4 3001 -37 3075 -8 14 -13 28 -12 32 1 4 -26 37 -59 72 -68 74 -148
117 -244 135 -42 8 -785 11 -2510 10 -1347 0 -2454 -2 -2460 -4z"/>
</g>
</svg>
